<?xml version="1.0"?>
<svg xmlns="http://www.w3.org/2000/svg" xmlns:xlink="http://www.w3.org/1999/xlink" xmlns:svgjs="http://svgjs.com/svgjs" version="1.1" width="512" height="512" x="0" y="0" viewBox="0 0 512 512" style="enable-background:new 0 0 512 512" xml:space="preserve" class=""><g transform="matrix(0.9000000000000001,0,0,0.8999999999999999,25.600197219848667,25.599991989135788)"><g xmlns="http://www.w3.org/2000/svg" fill="#d4e1f4"><path d="m63 397.629v-96.407l-20-9.137v105.544l96.28 44.475v-9.239z" fill="#00000000" data-original="#d4e1f4" class=""/><path d="m172.72 226.331v-96.256l-20-9.238v105.494l96.28 44.475v-9.239z" fill="#00000000" data-original="#d4e1f4" class=""/><path d="m276 395.135c-1.7-.136-.611-71.312-.165-96.931l-19.835-9.061s-2.071 105.826 0 105.992c2.071-.167 102.72 46.969 102.72 46.969v-9.34c-29.463-13.732-81.241-37.748-82.72-37.629z" fill="#00000000" data-original="#d4e1f4" class=""/></g><path xmlns="http://www.w3.org/2000/svg" d="m482.929 280.213c0-.039-.014-.077-.02-.117a6.956 6.956 0 0 0 -.169-.769c-.019-.069-.038-.138-.059-.206a7.039 7.039 0 0 0 -.314-.839 6.912 6.912 0 0 0 -.429-.787c-.036-.058-.074-.114-.112-.17a6.721 6.721 0 0 0 -.465-.626c-.026-.031-.049-.063-.075-.094a7.155 7.155 0 0 0 -.642-.649l-.1-.081a6.985 6.985 0 0 0 -.64-.485c-.046-.031-.091-.064-.137-.094a7.379 7.379 0 0 0 -.793-.438.378.378 0 0 1 -.04-.022l-110.279-50.936a7 7 0 1 0 -5.871 12.709l96.447 44.552-93.511 42.72-104.179-47.6a8.478 8.478 0 0 0 -11.081 0l-104.18 47.595-93.511-42.72 96.447-44.556a7 7 0 1 0 -5.871-12.709l-110.281 50.945c-.016.008-.031.019-.048.027a7.177 7.177 0 0 0 -.777.429c-.053.034-.1.071-.156.106a7.163 7.163 0 0 0 -.62.47c-.036.031-.075.06-.11.092a6.775 6.775 0 0 0 -.636.643c-.029.033-.054.068-.083.1a6.9 6.9 0 0 0 -.459.617c-.038.058-.077.115-.114.174a6.378 6.378 0 0 0 -.742 1.625c-.021.068-.04.137-.059.206a6.956 6.956 0 0 0 -.169.769c-.006.04-.015.078-.02.117a6.82 6.82 0 0 0 -.067.922v.056 120.918a7 7 0 0 0 4.064 6.354l110.277 50.939a7 7 0 0 0 5.871 0l106.784-49.324 106.784 49.324a7 7 0 0 0 5.871 0l110.281-50.942a7 7 0 0 0 4.064-6.351v-120.916c0-.019 0-.037 0-.056a6.82 6.82 0 0 0 -.071-.922zm-221.357 117.016a8.461 8.461 0 0 0 -11.143 0l-97.149 44.871v-106.029l102.72-46.928 102.72 46.928v106.029zm-218.572-105.144 96.28 43.986v106.029l-96.28-44.471zm329.72 150.015v-106.029l96.28-43.986v105.544z" fill="#333333" data-original="#0635c9" class=""/><path xmlns="http://www.w3.org/2000/svg" d="m373.209 108.909c0-.035-.014-.069-.019-.1a7.024 7.024 0 0 0 -.169-.773c-.021-.074-.042-.149-.065-.223a7.116 7.116 0 0 0 -.284-.759c-.011-.026-.02-.053-.031-.078l-.006-.015a7.211 7.211 0 0 0 -.419-.764c-.036-.059-.076-.116-.114-.173a6.977 6.977 0 0 0 -.45-.6c-.032-.039-.062-.079-.095-.117a6.929 6.929 0 0 0 -.638-.644c-.028-.026-.06-.048-.089-.074a6.985 6.985 0 0 0 -.64-.485c-.05-.034-.1-.069-.151-.1a7.161 7.161 0 0 0 -.79-.437c-.012 0-.021-.012-.033-.018l-110.28-50.949a7 7 0 0 0 -5.872 0l-110.28 50.941c-.01.005-.018.012-.028.016a7.086 7.086 0 0 0 -.8.442c-.047.03-.093.063-.14.094a6.926 6.926 0 0 0 -.653.5l-.08.065a7 7 0 0 0 -.641.648c-.032.037-.06.075-.091.112a7.042 7.042 0 0 0 -.454.61c-.038.057-.077.113-.113.172a7.019 7.019 0 0 0 -.419.764l-.006.015c-.011.025-.02.052-.031.078a7.116 7.116 0 0 0 -.284.759c-.023.074-.044.149-.065.223a7.024 7.024 0 0 0 -.169.773c0 .035-.014.069-.019.1a6.894 6.894 0 0 0 -.066.916v.068 120.913a7 7 0 0 0 4.064 6.354l106.211 49.064v116.439a7 7 0 0 0 14 0v-116.439l106.216-49.064a7 7 0 0 0 4.064-6.354v-120.916c0-.023 0-.045 0-.068a6.894 6.894 0 0 0 -.071-.916zm-117.209-42.247 93.588 43.231-93.588 43.231-93.588-43.231zm-103.28 159.669v-105.494l96.28 44.474v105.495zm110.28 44.475v-105.495l96.28-44.474v105.494z" fill="#f1b44c" data-original="#1ae5be" class=""/></g></svg>
