<?xml version="1.0"?>
<svg xmlns="http://www.w3.org/2000/svg" xmlns:xlink="http://www.w3.org/1999/xlink" xmlns:svgjs="http://svgjs.com/svgjs" version="1.1" width="512" height="512" x="0" y="0" viewBox="0 0 511.999 511.999" style="enable-background:new 0 0 512 512" xml:space="preserve" class=""><g transform="matrix(0.77,0,0,0.77,58.87991840362548,58.879916237592624)"><g xmlns="http://www.w3.org/2000/svg"><g clip-rule="evenodd" fill="#e2c4ff" fill-rule="evenodd"><path d="m245.706 383.099c-17.515 2.434-30.229 12.268-40.198 26.41l-71.512-123.864 8.646-.012c14.295-.019 27.41-7.624 34.566-19.95l4.336-7.468 71.508 123.856z" fill="#f1b44c" data-original="#e2c4ff" class=""/><path d="m182.334 226.924c-3.679-13.756-14.523-24.6-28.279-28.279l-8.37-2.239 72.619-72.619s2.897 6.821 2.897 6.821c6.897 16.276 19.717 26.121 35.99 32.066l-72.619 72.619z" fill="#f1b44c" data-original="#e2c4ff" class=""/></g><g fill="#020288"><path d="m445.958 491.999h-30v-30.001c0-2.652-1.054-5.195-2.929-7.071l-20-20c-1.875-1.875-4.419-2.929-7.071-2.929h-60.708c-7.826-56.328-77.938-80.068-118.355-39.927-11.06 10.868-18.072 24.806-20.228 39.927h-60.709c-2.652 0-5.196 1.054-7.071 2.929l-20 20c-1.875 1.876-2.929 4.419-2.929 7.071v30.001h-29.999c-13.254.492-13.244 19.513 0 20h379.999c13.254-.492 13.244-19.512 0-20zm-189.999-100c23.974 0 44.293 17.257 48.982 39.999h-97.964c4.688-22.742 25.007-39.999 48.982-39.999zm-140.001 74.141 14.142-14.142h251.717l14.142 14.143v25.858h-280v-25.859z" fill="#333333" data-original="#020288" class=""/><path d="m440.936 148.636-68.62 39.859-40.819-41.068c18.441-23.291 18.438-60.546 0-83.835l40.819-41.068 68.62 39.858c4.775 2.773 10.896 1.151 13.669-3.625 2.774-4.775 1.151-10.896-3.624-13.67l-75.294-43.734c-3.931-2.284-8.909-1.626-12.115 1.598l-46.221 46.503c-44.933-34.479-112.411-1.056-111.881 56.056-.532 57.105 66.959 90.539 111.881 56.055l46.222 46.504c3.218 3.24 8.211 3.869 12.116 1.598l75.294-43.735c11.212-7.084 1.65-23.525-10.047-17.296zm-215.467-43.127c0-27.57 22.43-50 50-50 66.241 2.513 66.223 97.497-.001 100-27.569 0-49.999-22.43-49.999-50z" fill="#333333" data-original="#020288" class=""/><path d="m139.936 296.042c30.327 0 55-24.673 55-55-2.765-72.865-107.246-72.845-110 .001 0 30.326 24.673 54.999 55 54.999zm0-90c19.299 0 35 15.701 35 35-1.76 46.368-68.247 46.356-70 0 0-19.299 15.701-35 35-35z" fill="#333333" data-original="#020288" class=""/><path d="m275.472 95.509h-.007c-5.523 0-9.997 4.478-9.997 10 .492 13.248 19.515 13.249 20.004 0 0-5.522-4.477-10-10-10z" fill="#333333" data-original="#020288" class=""/><path d="m139.94 251.042c13.254-.492 13.244-19.513 0-20h-.007c-13.255.494-13.237 19.515.007 20z" fill="#333333" data-original="#020288" class=""/></g></g></g></svg>
