<?xml version="1.0"?>
<svg xmlns="http://www.w3.org/2000/svg" xmlns:xlink="http://www.w3.org/1999/xlink" xmlns:svgjs="http://svgjs.com/svgjs" version="1.1" width="512" height="512" x="0" y="0" viewBox="0 0 64 64" style="enable-background:new 0 0 512 512" xml:space="preserve" class=""><g transform="matrix(0.8,0,0,0.8,6.400001382827757,6.3379999637603746)"><path xmlns="http://www.w3.org/2000/svg" d="m34.365 14.588c-.332-1.159-.795-2.275-1.381-3.332l1.426-2.303-5.363-5.363-2.303 1.426c-1.057-.586-2.173-1.049-3.332-1.381l-.62-2.635h-7.584l-.62 2.635c-1.159.332-2.275.795-3.332 1.381l-2.303-1.426-5.363 5.363 1.426 2.303c-.586 1.057-1.049 2.173-1.381 3.332l-2.635.62v7.584l2.635.62c.332 1.159.795 2.275 1.381 3.332l-1.426 2.303 5.363 5.363 2.303-1.426c1.057.586 2.173 1.049 3.332 1.381l.62 2.635h7.584l.62-2.635c1.159-.332 2.275-.795 3.332-1.381l1.547.957c-.187-1.198-.291-2.42-.291-3.661v-4.954c-1.991 2.827-5.28 4.674-9 4.674-6.075 0-11-4.925-11-11s4.925-11 11-11 11 4.925 11 11h1.83c1.748 0 3.482-.194 5.17-.572v-3.22z" fill="#f1b44c" data-original="#f0bc5e" class=""/><path xmlns="http://www.w3.org/2000/svg" d="m43 42.414-6.414-6.414 4.414-4.414 2 2 8-8 4.414 4.414z" fill="#f1b44c" data-original="#f0bc5e" class=""/><path xmlns="http://www.w3.org/2000/svg" d="m40.711 24.691.578 1.914c.669-.201 1.347-.431 2.014-.681l-.701-1.873c-.627.236-1.263.451-1.891.64z" fill="#333333" data-original="#000000" class=""/><path xmlns="http://www.w3.org/2000/svg" d="m35.87 25.735-.87.115v4.431c0 .268.006.535.02.801l1.998-.102c-.012-.233-.018-.465-.018-.7v-2.688c.742-.119 1.487-.265 2.226-.435l-.451-1.949c-.964.224-1.942.4-2.905.527z" fill="#333333" data-original="#000000" class=""/><path xmlns="http://www.w3.org/2000/svg" d="m63 18h-4.829c-4.494 0-8.845-1.317-12.622-3.836l-.587-.341-.551.367c-3.737 2.493-8.088 3.81-12.582 3.81h-.88c-.511-6.15-5.669-11-11.949-11-6.617 0-12 5.383-12 12s5.383 12 12 12c2.98 0 5.82-1.119 8-3.068v2.349c0 5.438 1.823 10.592 4.95 14.77l-3.364 12.335 4.938-1.235 3.737 6.229 3.353-10.059c1.304.659 2.671 1.217 4.104 1.639l.282.082.282-.083c1.433-.422 2.8-.98 4.104-1.639l3.353 10.059 3.737-6.229 4.938 1.235-3.364-12.335c3.127-4.178 4.95-9.332 4.95-14.77zm-44 11c-5.514 0-10-4.486-10-10s4.486-10 10-10c5.176 0 9.446 3.954 9.949 9h-1.949v6.979c-1.887 2.518-4.849 4.021-8 4.021zm17.739 28.621-2.263-3.771-3.062.765 2.099-7.698c1.552 1.701 3.34 3.189 5.324 4.409zm21.847-3.006-3.062-.765-2.263 3.771-2.098-6.295c1.984-1.22 3.772-2.708 5.324-4.409zm2.414-24.335c0 9.894-6.564 18.765-16 21.676-9.436-2.911-16-11.782-16-21.676v-10.28h2.829c4.673 0 9.203-1.309 13.17-3.808 3.948 2.494 8.489 3.808 13.172 3.808h2.829z" fill="#333333" data-original="#000000" class=""/><path xmlns="http://www.w3.org/2000/svg" d="m19 13c-3.309 0-6 2.691-6 6s2.691 6 6 6 6-2.691 6-6-2.691-6-6-6zm0 10c-2.206 0-4-1.794-4-4s1.794-4 4-4 4 1.794 4 4-1.794 4-4 4z" fill="#333333" data-original="#000000" class=""/><path xmlns="http://www.w3.org/2000/svg" d="m45.478 18.788-.477-.259-.477.259c-3.828 2.074-8.161 3.185-12.53 3.211l-.994.006v8.275c0 8.677 5.489 16.495 13.659 19.453l.341.123.341-.123c8.17-2.958 13.659-10.776 13.659-19.453v-8.275l-.994-.006c-4.366-.026-8.698-1.137-12.528-3.211zm11.522 11.492c0 7.717-4.807 14.682-12 17.445-7.193-2.764-12-9.729-12-17.445v-6.305c4.178-.171 8.297-1.261 12.001-3.177 3.705 1.916 7.823 3.006 11.999 3.177z" fill="#333333" data-original="#000000" class=""/></g></svg>
