<?xml version="1.0"?>
<svg xmlns="http://www.w3.org/2000/svg" xmlns:xlink="http://www.w3.org/1999/xlink" xmlns:svgjs="http://svgjs.com/svgjs" version="1.1" width="512" height="512" x="0" y="0" viewBox="0 0 496 496" style="enable-background:new 0 0 512 512" xml:space="preserve" class=""><g transform="matrix(0.8,0,0,0.8,49.599999999999994,49.599999999999994)">
<path xmlns="http://www.w3.org/2000/svg" style="" d="M304,304H192v-80h112V304z" fill="#f1b44c" data-original="#ffa64d" class=""/>
<g xmlns="http://www.w3.org/2000/svg">
	<path style="" d="M480,128h-0.248c9.8-7.296,16.248-18.872,16.248-32c0-11.424-5.016-22.368-13.768-30.016   l-10.528,12.04C477.048,82.704,480,89.088,480,96c0,13.232-10.768,24-24,24s-24-10.768-24-24c0-6.912,2.952-13.296,8.304-17.984   l-10.528-12.04C421.016,73.632,416,84.576,416,96c0,13.128,6.448,24.704,16.248,32H432v64h-8v9.832l-56,5.368V192h-32h-8h-48v-16   h16c13.232,0,24-10.768,24-24v-40h32V64h-32V32h-64V0h-16v32h-64v32h-32v48h32v40c0,13.232,10.768,24,24,24h16v16h-48h-8h-32   v15.192l-56-5.368V192h-8v-64h-0.248C73.552,120.704,80,109.128,80,96c0-11.432-5.016-22.368-13.768-30.024L55.704,78.024   C61.048,82.704,64,89.088,64,96c0,13.232-10.768,24-24,24s-24-10.768-24-24c0-6.912,2.952-13.296,8.304-17.984L13.768,65.984   C5.016,73.632,0,84.576,0,96c0,13.128,6.448,24.704,16.248,32H16v64H8v32c0,17.648,14.352,32,32,32   c7.776,0,14.816-2.896,20.36-7.52l67.64,6.76V272h32v72c0,10.416,6.712,19.216,16,22.528V448h-8c-13.232,0-24,10.768-24,24v24h80   v-40v-8v-80h48v80v8v40h80v-24c0-13.232-10.768-24-24-24h-8v-81.472c9.288-3.312,16-12.112,16-22.528v-72h32v-16.76l67.64-6.76   c5.544,4.624,12.584,7.52,20.36,7.52c17.648,0,32-14.352,32-32v-32h-8V128z M32,135.192c2.584,0.528,5.264,0.808,8,0.808   s5.416-0.28,8-0.808V192H32V135.192z M40,240c-8.824,0-16-7.176-16-16v-16h32v16C56,232.824,48.824,240,40,240z M70.424,233.4   C71.352,230.408,72,227.296,72,224v-6.096l56,5.368v15.888L70.424,233.4z M144,256v-48h16v48H144z M448,135.192   c2.584,0.528,5.264,0.808,8,0.808s5.416-0.28,8-0.808V192h-16V135.192z M336,80v16h-16V80H336z M304,48v64h-27.312l-7.032,7.032   c-11.568,11.568-31.744,11.568-43.312,0L219.312,112H192V48H304z M160,96V80h16v16H160z M200,160c-4.408,0-8-3.592-8-8v-24h20.688   l2.344,2.344C223.832,139.152,235.544,144,248,144s24.168-4.848,32.968-13.656l2.344-2.344H304v24c0,4.408-3.592,8-8,8h-16h-64H200   z M232,176h32v16h-32V176z M208,416h-16v-16h16V416z M208,480h-48v-8c0-4.416,3.592-8,8-8h40V480z M192,448v-16h16v16H192z    M208,384h-16v-16h16V384z M304,416h-16v-16h16V416z M304,384h-16v-16h16V384z M336,472v8h-48v-16h40   C332.408,464,336,467.584,336,472z M288,448v-16h16v16H288z M352,256h-16v-16h-16v104c0,4.416-3.592,8-8,8h-40h-48h-40   c-4.408,0-8-3.584-8-8V208h40h64h40v16h16v-16h16V256z M368,223.272l56-5.368V224c0,3.296,0.648,6.408,1.576,9.4L368,239.16   V223.272z M472,224c0,8.824-7.176,16-16,16s-16-7.176-16-16v-16h32V224z" fill="#333333" data-original="#333333" class=""/>
	<rect x="192" y="320" style="" width="16" height="16" fill="#333333" data-original="#333333" class=""/>
	<rect x="288" y="320" style="" width="16" height="16" fill="#333333" data-original="#333333" class=""/>
	<rect x="224" y="320" style="" width="48" height="16" fill="#333333" data-original="#333333" class=""/>
	<rect x="208" y="64" style="" width="16" height="16" fill="#333333" data-original="#333333" class=""/>
	<rect x="272" y="64" style="" width="16" height="16" fill="#333333" data-original="#333333" class=""/>
</g>
<g xmlns="http://www.w3.org/2000/svg">
</g>
<g xmlns="http://www.w3.org/2000/svg">
</g>
<g xmlns="http://www.w3.org/2000/svg">
</g>
<g xmlns="http://www.w3.org/2000/svg">
</g>
<g xmlns="http://www.w3.org/2000/svg">
</g>
<g xmlns="http://www.w3.org/2000/svg">
</g>
<g xmlns="http://www.w3.org/2000/svg">
</g>
<g xmlns="http://www.w3.org/2000/svg">
</g>
<g xmlns="http://www.w3.org/2000/svg">
</g>
<g xmlns="http://www.w3.org/2000/svg">
</g>
<g xmlns="http://www.w3.org/2000/svg">
</g>
<g xmlns="http://www.w3.org/2000/svg">
</g>
<g xmlns="http://www.w3.org/2000/svg">
</g>
<g xmlns="http://www.w3.org/2000/svg">
</g>
<g xmlns="http://www.w3.org/2000/svg">
</g>
</g></svg>
