<?xml version="1.0"?>
<svg xmlns="http://www.w3.org/2000/svg" xmlns:xlink="http://www.w3.org/1999/xlink" xmlns:svgjs="http://svgjs.com/svgjs" version="1.1" width="512" height="512" x="0" y="0" viewBox="0 0 512 512" style="enable-background:new 0 0 512 512" xml:space="preserve" class=""><g transform="matrix(0.72,0,0,0.72,46.67986114501957,71.68)"><g xmlns="http://www.w3.org/2000/svg" id="_x31_38_Checklist"><g><g><path d="m164.345 76.112c0 34.977-28.36 63.336-63.389 63.336-34.976 0-63.336-28.359-63.336-63.336 0-34.976 28.36-63.336 63.336-63.336 35.029 0 63.389 28.36 63.389 63.336z" fill="#f1b44c" data-original="#7cc558" class=""/></g><g><g><path d="m84.512 98.795-12.427-12.427c-3.032-3.032-3.032-7.944 0-10.977s7.944-3.032 10.977 0l6.939 6.939 28.902-28.902c3.032-3.032 7.944-3.032 10.977 0 3.032 3.032 3.032 7.944 0 10.977l-34.39 34.39c-3.033 3.032-7.945 3.032-10.978 0z" fill="#333333" data-original="#3f3f3f" class=""/></g></g><g><g><path d="m466.617 38.908h-252.263c-4.288 0-7.762-3.477-7.762-7.762s3.474-7.762 7.762-7.762h252.263c4.286 0 7.762 3.477 7.762 7.762s-3.476 7.762-7.762 7.762z" fill="#333333" data-original="#3f3f3f" class=""/></g></g><g><g><path d="m466.617 83.876h-252.263c-4.288 0-7.762-3.477-7.762-7.762 0-4.286 3.474-7.762 7.762-7.762h252.263c4.286 0 7.762 3.477 7.762 7.762.001 4.285-3.476 7.762-7.762 7.762z" fill="#333333" data-original="#3f3f3f" class=""/></g></g><g><g><path d="m377.328 128.839h-162.974c-4.288 0-7.762-3.477-7.762-7.762 0-4.286 3.474-7.762 7.762-7.762h162.974c4.286 0 7.762 3.477 7.762 7.762.001 4.285-3.476 7.762-7.762 7.762z" fill="#333333" data-original="#3f3f3f" class=""/></g></g><g><path d="m164.345 256c0 34.977-28.36 63.336-63.389 63.336-34.976 0-63.336-28.359-63.336-63.336 0-34.976 28.36-63.336 63.336-63.336 35.029 0 63.389 28.36 63.389 63.336z" fill="#f1b44c" data-original="#7cc558" class=""/></g><g><g><path d="m84.512 278.686-12.427-12.427c-3.032-3.032-3.032-7.944 0-10.977s7.944-3.032 10.977 0l6.939 6.939 28.902-28.907c3.027-3.032 7.944-3.032 10.977 0 3.032 3.032 3.032 7.944 0 10.977l-34.39 34.395c-3.028 3.027-7.942 3.036-10.978 0z" fill="#333333" data-original="#3f3f3f" class=""/></g></g><g><g><path d="m466.617 218.8h-252.263c-4.288 0-7.762-3.477-7.762-7.762 0-4.286 3.474-7.762 7.762-7.762h252.263c4.286 0 7.762 3.477 7.762 7.762.001 4.285-3.476 7.762-7.762 7.762z" fill="#333333" data-original="#3f3f3f" class=""/></g></g><g><g><path d="m466.617 263.762h-252.263c-4.288 0-7.762-3.477-7.762-7.762 0-4.286 3.474-7.762 7.762-7.762h252.263c4.286 0 7.762 3.477 7.762 7.762.001 4.286-3.476 7.762-7.762 7.762z" fill="#333333" data-original="#3f3f3f" class=""/></g></g><g><g><path d="m377.328 308.725h-162.974c-4.288 0-7.762-3.477-7.762-7.762 0-4.286 3.474-7.762 7.762-7.762h162.974c4.286 0 7.762 3.477 7.762 7.762.001 4.285-3.476 7.762-7.762 7.762z" fill="#333333" data-original="#3f3f3f" class=""/></g></g><g><path d="m164.345 435.888c0 34.977-28.36 63.336-63.389 63.336-34.976 0-63.336-28.359-63.336-63.336 0-34.976 28.36-63.336 63.336-63.336 35.029 0 63.389 28.36 63.389 63.336z" fill="#f1b44c" data-original="#7cc558" class=""/></g><g><g><path d="m84.512 458.572-12.427-12.427c-3.032-3.032-3.032-7.944 0-10.977s7.944-3.032 10.977 0l6.939 6.939 28.902-28.902c3.032-3.032 7.944-3.032 10.977 0 3.032 3.032 3.032 7.944 0 10.977l-34.39 34.39c-3.033 3.032-7.945 3.033-10.978 0z" fill="#333333" data-original="#3f3f3f" class=""/></g></g><g><g><path d="m466.617 398.686h-252.263c-4.288 0-7.762-3.477-7.762-7.762 0-4.286 3.474-7.762 7.762-7.762h252.263c4.286 0 7.762 3.477 7.762 7.762.001 4.285-3.476 7.762-7.762 7.762z" fill="#333333" data-original="#3f3f3f" class=""/></g></g><g><g><path d="m466.617 443.649h-252.263c-4.288 0-7.762-3.477-7.762-7.762s3.474-7.762 7.762-7.762h252.263c4.286 0 7.762 3.477 7.762 7.762s-3.476 7.762-7.762 7.762z" fill="#333333" data-original="#3f3f3f" class=""/></g></g><g><g><path d="m377.328 488.617h-162.974c-4.288 0-7.762-3.477-7.762-7.762 0-4.286 3.474-7.762 7.762-7.762h162.974c4.286 0 7.762 3.477 7.762 7.762.001 4.285-3.476 7.762-7.762 7.762z" fill="#333333" data-original="#3f3f3f" class=""/></g></g></g></g></g></svg>
