<?xml version="1.0"?>
<svg xmlns="http://www.w3.org/2000/svg" xmlns:xlink="http://www.w3.org/1999/xlink" xmlns:svgjs="http://svgjs.com/svgjs" version="1.1" width="512" height="512" x="0" y="0" viewBox="0 0 512 512" style="enable-background:new 0 0 512 512" xml:space="preserve" class=""><g transform="matrix(0.8,0,0,0.8,51.19999999999999,51.19999694824216)"><g xmlns="http://www.w3.org/2000/svg" clip-rule="evenodd" fill-rule="evenodd"><path d="m249 416.594v-151.557h-176.227v147.887h-14v-154.887c0-3.866 3.134-7 7-7h183.227v-144.017h14v144.016h183.226c3.866 0 7 3.134 7 7v154.887h-14v-147.886h-176.226v151.558h-14z" fill="#333333" data-original="#a9b0bb" class=""/><g fill="#c6ea94"><path d="m31 363.15h69.547c8.262 0 15 6.738 15 15v69.547c0 8.262-6.738 15-15 15h-69.547c-8.262 0-15-6.738-15-15v-69.547c0-8.262 6.738-15 15-15z" fill="#f1b44c" data-original="#c6ea94" class=""/><path d="m411.453 363.15h69.547c8.262 0 15 6.738 15 15v69.547c0 8.262-6.738 15-15 15h-69.547c-8.262 0-15-6.738-15-15v-69.547c0-8.262 6.739-15 15-15z" fill="#f1b44c" data-original="#c6ea94" class=""/><path d="m221.226 363.15h69.547c8.262 0 15 6.738 15 15v69.547c0 8.262-6.738 15-15 15h-69.547c-8.262 0-15-6.738-15-15v-69.547c.001-8.262 6.739-15 15-15z" fill="#f1b44c" data-original="#c6ea94" class=""/></g><path d="m187.923 49.303h136.154c8.262 0 15 6.738 15 15v85.433c0 8.262-6.738 15-15 15h-136.154c-8.262 0-15-6.738-15-15v-85.433c0-8.261 6.739-15 15-15z" fill="#f1b44c" data-original="#66d4f1" class=""/></g></g></svg>
